<?xml version="1.0" encoding="iso-8859-1"?>
<!-- Uploaded to: SVG Repo, www.svgrepo.com, Generator: SVG Repo Mixer Tools -->
<svg height="800px" width="800px" version="1.1" id="Layer_1" xmlns="http://www.w3.org/2000/svg" xmlns:xlink="http://www.w3.org/1999/xlink" 
	 viewBox="0 0 511.981 511.981" xml:space="preserve">
<path style="fill:#424953;" d="M393.361,221.913c-0.453-2.219-11.016-54.919-32.421-108.542C330.91,38.138,295.24,0,254.897,0
	c-40.342,0-76.013,38.139-106.042,113.371c-21.406,53.623-31.968,106.324-32.405,108.542c-1.156,5.766,2.593,11.391,8.375,12.531
	s11.406-2.609,12.531-8.391c0.125-0.516,10.688-53.217,31.405-105.027c18.187-45.482,47.89-99.699,86.138-99.699
	c38.249,0,67.95,54.217,86.138,99.699c20.718,51.811,31.295,104.512,31.404,105.027c1,5.078,5.453,8.594,10.438,8.594
	c0.688,0,1.391-0.062,2.094-0.203C390.752,233.303,394.502,227.694,393.361,221.913z"/>
<path style="fill:#FECD57;" d="M457.561,170.649H52.233c-23.468,0-39.123,18.875-34.795,41.937l48.264,257.459
	c4.343,23.062,27.061,41.936,50.529,41.936h298.662c23.467,0,45.044-19.062,47.95-42.342l32.093-256.646
	C497.842,189.711,481.03,170.649,457.561,170.649z M126.902,245.319c-11.765,0-21.328-9.578-21.328-21.328
	c0-11.765,9.562-21.343,21.328-21.343s21.328,9.578,21.328,21.343C148.23,235.741,138.667,245.319,126.902,245.319z
	 M382.892,245.319c-11.766,0-21.327-9.578-21.327-21.328c0-11.765,9.562-21.343,21.327-21.343s21.328,9.578,21.328,21.343
	C404.22,235.741,394.658,245.319,382.892,245.319z"/>
<path style="fill:#EC5564;" d="M297.568,213.32h-85.341c-5.875,0-10.656,4.766-10.656,10.671c0,5.875,4.781,10.656,10.656,10.656
	h85.341c5.89,0,10.655-4.781,10.655-10.656C308.223,218.086,303.458,213.32,297.568,213.32z"/>
<g>
	<path style="fill:#F5BA45;" d="M126.902,191.992c-17.671,0-31.999,14.312-31.999,31.999c0,17.671,14.328,31.999,31.999,31.999
		s31.999-14.328,31.999-31.999C158.901,206.304,144.573,191.992,126.902,191.992z M126.902,234.647
		c-5.891,0-10.671-4.781-10.671-10.656c0-5.89,4.781-10.671,10.671-10.671s10.671,4.781,10.671,10.671
		C137.573,229.866,132.793,234.647,126.902,234.647z"/>
	<path style="fill:#F5BA45;" d="M382.892,191.992c-17.671,0-31.998,14.312-31.998,31.999c0,17.671,14.327,31.999,31.998,31.999
		c17.672,0,32-14.328,32-31.999C414.892,206.304,400.564,191.992,382.892,191.992z M382.892,234.647
		c-5.891,0-10.672-4.781-10.672-10.656c0-5.89,4.781-10.671,10.672-10.671s10.672,4.781,10.672,10.671
		C393.564,229.866,388.783,234.647,382.892,234.647z"/>
</g>
</svg>